<svg width="1255" height="1176" viewBox="0 0 1255 1176" fill="none" xmlns="http://www.w3.org/2000/svg">
<path d="M627.364 32.8945V297.235" stroke="#14BFF3" stroke-width="65.79" stroke-linecap="round" stroke-linejoin="round"/>
<path d="M885.114 1073.8L924.594 1142.18" stroke="#14BFF3" stroke-width="65.79" stroke-linecap="round" stroke-linejoin="round"/>
<path d="M330.125 112.534L436.765 297.234" stroke="#14BFF3" stroke-width="65.79" stroke-linecap="round" stroke-linejoin="round"/>
<path d="M1070.75 883.354L1142.18 924.595" stroke="#14BFF3" stroke-width="65.79" stroke-linecap="round" stroke-linejoin="round"/>
<path d="M112.534 330.125L250.004 409.495" stroke="#14BFF3" stroke-width="65.79" stroke-linecap="round" stroke-linejoin="round"/>
<path d="M1153.06 627.364H1221.82" stroke="#14BFF3" stroke-width="65.79" stroke-linecap="round" stroke-linejoin="round"/>
<path d="M32.8945 627.364H101.665" stroke="#14BFF3" stroke-width="65.79" stroke-linecap="round" stroke-linejoin="round"/>
<path d="M1004.71 409.495L1142.19 330.125" stroke="#14BFF3" stroke-width="65.79" stroke-linecap="round" stroke-linejoin="round"/>
<path d="M112.534 924.595L183.964 883.354" stroke="#14BFF3" stroke-width="65.79" stroke-linecap="round" stroke-linejoin="round"/>
<path d="M817.965 297.234L924.595 112.534" stroke="#14BFF3" stroke-width="65.79" stroke-linecap="round" stroke-linejoin="round"/>
<path d="M330.125 1142.18L369.605 1073.8" stroke="#14BFF3" stroke-width="65.79" stroke-linecap="round" stroke-linejoin="round"/>
<path d="M627.364 1136.45L205.944 717.504L447.935 657.874L627.364 1136.45Z" stroke="#2E3191" stroke-width="65.79" stroke-linecap="round" stroke-linejoin="round"/>
<path d="M447.935 657.874L552.404 443.954H398.165L205.944 717.504L447.935 657.874Z" stroke="#2E3191" stroke-width="65.79" stroke-linecap="round" stroke-linejoin="round"/>
<path d="M627.364 1136.45L1048.77 717.504L806.784 657.874L627.364 1136.45Z" stroke="#2E3191" stroke-width="65.79" stroke-linecap="round" stroke-linejoin="round"/>
<path d="M806.784 657.874L702.324 443.954H856.554L1048.77 717.504L806.784 657.874Z" stroke="#2E3191" stroke-width="65.79" stroke-linecap="round" stroke-linejoin="round"/>
<path d="M447.935 657.874H806.784L702.324 443.954H552.404L447.935 657.874Z" stroke="#2E3191" stroke-width="65.79" stroke-linecap="round" stroke-linejoin="round"/>
<path d="M447.935 657.874H806.784L627.364 1136.45L447.935 657.874Z" stroke="#2E3191" stroke-width="65.79" stroke-linecap="round" stroke-linejoin="round"/>
</svg>
