<svg width="20" height="17" viewBox="0 0 20 17" fill="none" xmlns="http://www.w3.org/2000/svg">
<path d="M6.50936 3.08984H3.24492L2.54492 12.7014H6.50936V3.08984ZM5.3382 10.3658H3.9382V8.96583H5.3382V10.3658ZM5.3382 7.56582H3.9382V6.16582H5.3382V7.56582Z" fill="#2E3192"/>
<path d="M18.9472 16.342H17.3587H16.901L16.6654 13.1516H12.6674V16.342H12.4385H12.2097V2.90061L11.2741 0.289062H7.89522L6.95964 2.90061V16.342H6.73079H6.50868V13.1516H2.51059L2.27501 16.342H1.81731H0.228847C0.100962 16.342 0 16.443 0 16.5709C0 16.6987 0.100962 16.7997 0.228847 16.7997H2.0327H6.73753H8.63561H10.5337H12.4318H17.1433H18.9472C19.0751 16.7997 19.176 16.6987 19.176 16.5709C19.1693 16.443 19.0683 16.342 18.9472 16.342ZM8.89138 3.41215H10.2914V4.81216H8.89138V3.41215ZM8.89138 6.16505H10.2914V7.56505H8.89138V6.16505ZM8.89138 8.96506H10.2914V10.3651H8.89138V8.96506ZM10.7693 16.342H10.3116V12.1958H8.86446V16.342H8.40676V11.967C8.40676 11.8391 8.50772 11.7381 8.63561 11.7381H10.5337C10.6616 11.7381 10.7625 11.8391 10.7625 11.967V16.342H10.7693Z" fill="#2E3192"/>
<path d="M19.0945 2.59136C18.9868 2.59136 18.8926 2.51732 18.8724 2.40963C18.8118 2.08655 18.6839 1.78366 18.4888 1.5077C18.4282 1.4202 18.4349 1.29231 18.5157 1.21827L18.7176 1.01635L18.3474 0.646156L18.1387 0.854811C18.0647 0.92885 17.9436 0.942311 17.8493 0.881734C17.5734 0.700002 17.2705 0.572117 16.9407 0.51154C16.833 0.491347 16.7522 0.397117 16.7522 0.289424V0H16.2339V0.289424C16.2339 0.397117 16.1599 0.491347 16.0522 0.51154C15.7291 0.572117 15.4262 0.700003 15.1503 0.895196C15.0628 0.955773 14.9349 0.949042 14.8609 0.868272L14.6589 0.666348L14.2887 1.03654L14.4974 1.2452C14.5714 1.31924 14.5849 1.44039 14.5243 1.53462C14.3359 1.81058 14.2147 2.11347 14.1541 2.44328C14.1339 2.55097 14.0397 2.63174 13.932 2.63174H13.6426V3.15001H13.9387C14.0464 3.15001 14.1407 3.22405 14.1609 3.33174C14.2214 3.65482 14.3493 3.95771 14.5445 4.23367C14.6051 4.32117 14.5984 4.44906 14.5176 4.52309L14.3157 4.72502L14.6859 5.09521L14.8945 4.88656C14.9685 4.81252 15.0897 4.79906 15.1839 4.85963C15.4599 5.0481 15.7628 5.16925 16.0926 5.22983C16.2003 5.25002 16.2811 5.34425 16.2811 5.45194V5.74137H16.7993V5.44521C16.7993 5.33752 16.8734 5.24329 16.9811 5.2231C17.3041 5.16252 17.607 5.03463 17.883 4.83944C17.9705 4.77886 18.0984 4.7856 18.1724 4.86637L18.3743 5.06829L18.7445 4.6981L18.5359 4.48944C18.4618 4.4154 18.4484 4.29425 18.5089 4.20002C18.6974 3.92405 18.8186 3.62117 18.8791 3.29136C18.8993 3.18367 18.9936 3.1029 19.1013 3.1029H19.3907V2.58463H19.0945V2.59136ZM16.5234 4.14617C15.8166 4.14617 15.2512 3.57405 15.2512 2.87405C15.2512 2.16732 15.8234 1.60193 16.5234 1.60193C17.2234 1.60193 17.7955 2.17405 17.7955 2.87405C17.7955 3.57405 17.2234 4.14617 16.5234 4.14617Z" fill="#14C0F3"/>
<path d="M16.1613 6.19382H16.0536C15.9257 6.19382 15.8247 6.09286 15.8247 5.96497V5.63517C15.5689 5.56786 15.3199 5.47363 15.0911 5.33901L14.8487 5.58132C14.7612 5.66882 14.6132 5.66882 14.5257 5.58132L13.8391 4.89478C13.7516 4.80728 13.7516 4.6592 13.8391 4.5717L14.0747 4.33612C13.9401 4.10728 13.8324 3.86497 13.7651 3.6092H13.4285C13.3007 3.6092 13.1997 3.50823 13.1997 3.38035V3.09766H12.668V12.7092H16.6324L16.1613 6.19382ZM15.0439 10.3669H13.6439V8.96691H15.0439V10.3669ZM15.0439 7.56691H13.6439V6.1669H15.0439V7.56691Z" fill="#2E3192"/>
</svg>
