<svg width="23" height="24" viewBox="0 0 23 24" fill="none" xmlns="http://www.w3.org/2000/svg">
<path d="M21.6479 16.3675C20.5852 14.8214 18.7015 14.1808 16.9866 14.6335L13.787 11.4338L13.1118 12.1091L15.2602 14.2575C15.5671 14.5644 15.5671 15.0593 15.2602 15.3662C15.1068 15.5197 14.9073 15.5964 14.7039 15.5964C14.5006 15.5964 14.3049 15.5197 14.1515 15.3662L12.003 13.214L11.3278 13.893L14.2512 16.8164C13.5338 18.1899 13.5798 19.9009 14.5159 21.2667C15.4213 22.5864 16.9252 23.2425 18.4138 23.1312L16.4572 20.2807C16.1886 19.8894 16.2884 19.36 16.6797 19.0876L18.8396 17.6029C19.2309 17.3343 19.7642 17.4341 20.0366 17.8216L21.9894 20.6721C22.6301 19.3255 22.5533 17.6834 21.6479 16.3675ZM8.08218 7.40556C8.28168 7.40556 8.48501 7.48229 8.63463 7.63575L11.0324 10.0335L11.7076 9.35832L8.59627 6.24695C9.27916 4.8735 9.20243 3.18162 8.2625 1.83885C7.34175 0.530619 5.83402 -0.113906 4.34931 0.0165333L6.33276 2.84401C6.60515 3.23532 6.50924 3.7686 6.12176 4.04099L3.97717 5.54871C3.58585 5.8211 3.05258 5.72903 2.78019 5.33771L0.792908 2.5064C0.167565 3.86451 0.25964 5.50268 1.17655 6.81091C2.26611 8.36084 4.18434 8.97852 5.91458 8.48361L9.24847 11.8175L9.92752 11.1423L7.52973 8.74449C7.22281 8.43757 7.22281 7.94267 7.52973 7.63575C7.67935 7.48229 7.88269 7.40556 8.08218 7.40556Z" fill="#2E3192"/>
<path d="M7.62642 12.5689L7.75663 12.4387C7.90312 12.2922 8.13913 12.2949 8.28291 12.4387L10.7027 14.8585C10.8492 15.005 10.8465 15.241 10.7027 15.3848L10.5725 15.515C10.426 15.6615 10.19 15.6588 10.0462 15.515L7.62642 13.0952C7.47993 12.9487 7.48264 12.7127 7.62642 12.5689Z" fill="#2E3192"/>
<path d="M9.49812 16.0577L4.21147 21.8239L3.55928 22.5337C3.35595 22.737 3.12576 22.8905 2.87255 22.9902C2.68073 23.0708 2.48507 23.1168 2.28557 23.1322C2.22035 23.1398 2.15513 23.1437 2.08608 23.1437C1.55281 23.1437 1.01954 22.9442 0.612875 22.5375C-0.204292 21.7204 -0.204292 20.4006 0.612875 19.5873L1.31878 18.9389L7.08498 13.6484L9.49812 16.0577Z" fill="#2E3192"/>
<path d="M20.3257 3.73716L19.3206 5.31778L18.4305 5.69759L10.4468 13.6851L9.45703 12.6953L17.4445 4.70778L17.8244 3.82156L19.405 2.81641L19.4894 2.90081L18.3231 3.87527C18.1198 4.0786 18.2118 4.51596 18.4152 4.72313C18.6262 4.9303 19.075 5.05306 19.2822 4.84589L20.2375 3.64892L20.3257 3.73716Z" fill="#14C0F3"/>
</svg>
