<svg width="20" height="24" viewBox="0 0 20 24" fill="none" xmlns="http://www.w3.org/2000/svg">
<path d="M16.995 22.8028C16.6198 22.4322 16.2628 22.0495 15.921 21.6517C14.7456 20.2812 13.7851 18.7928 13.0151 17.1999C13.0076 17.1833 13 17.1682 12.9925 17.1531C12.7837 16.7129 12.5886 16.2651 12.4071 15.8083C12.1665 15.2063 11.9502 14.5982 11.7581 13.984C11.3119 12.5334 10.9927 11.057 10.7991 9.55798C10.7613 9.22217 10.6675 8.26617 10.6463 7.98784C10.6418 7.92733 10.6493 7.86531 10.6705 7.80935C11.4541 7.52194 12.0077 6.75653 11.976 5.86558C11.9396 4.8415 11.1183 4.005 10.0957 3.95206C8.9476 3.89155 7.99765 4.8052 7.99765 5.9397C7.99765 6.79889 8.54221 7.53102 9.30459 7.80935C9.30459 7.81086 9.30459 7.81237 9.3061 7.8154C9.32577 7.86834 9.33485 7.92582 9.33182 7.98179C9.32577 8.10583 9.30157 8.41441 9.30005 8.41592C9.25467 8.7956 9.21988 9.1783 9.17602 9.55949C8.9824 11.0585 8.66474 12.5349 8.21699 13.9855C8.02488 14.6012 7.80857 15.2093 7.56806 15.8098C7.38503 16.2666 7.18989 16.7144 6.98266 17.1546C6.97509 17.1712 6.96753 17.1863 6.95997 17.2015C6.19154 18.7943 5.22948 20.2827 4.05415 21.6532C3.71229 22.051 3.3553 22.4353 2.98016 22.8044C2.85763 22.9254 2.73208 23.0464 2.60653 23.1644C2.59745 23.1704 2.43257 23.3247 2.29492 23.4503H4.00725C4.21751 23.237 4.42475 23.0222 4.62593 22.8028C4.83619 22.5759 5.0404 22.343 5.23402 22.104C5.27486 22.0526 5.31722 22.0163 5.36562 21.9936C5.36562 21.9936 5.36562 21.9936 5.36714 21.9936C5.37924 21.9875 5.38983 21.983 5.40193 21.9784C5.40647 21.9784 5.40949 21.9754 5.41403 21.9754C5.45336 21.9648 5.49723 21.9633 5.5426 21.9633H14.428C14.4749 21.9633 14.5172 21.9633 14.5566 21.9754C14.5611 21.9754 14.5641 21.9769 14.5687 21.9784C14.5808 21.983 14.5929 21.9875 14.6034 21.9936C14.6034 21.9936 14.6034 21.9936 14.605 21.9936C14.6534 22.0163 14.6957 22.0526 14.7366 22.104C14.9317 22.3445 15.1359 22.5759 15.3446 22.8028C15.5473 23.0222 15.7546 23.237 15.9633 23.4503H17.6757C17.538 23.3247 17.3731 23.1704 17.364 23.1644C17.237 23.0449 17.1129 22.9254 16.9904 22.8044L16.995 22.8028ZM9.98831 11.9949C10.2772 13.2368 10.6297 14.456 11.0532 15.6601H8.9234C9.34695 14.4545 9.6994 13.2368 9.98831 11.9949ZM8.57398 16.5298C8.58457 16.5056 8.59515 16.4814 8.60574 16.4557H11.3724C11.383 16.4799 11.3936 16.5056 11.4042 16.5298C11.6734 17.1682 11.9638 17.7793 12.2679 18.401H7.71176C8.0158 17.7793 8.30624 17.1697 8.57549 16.5298H8.57398ZM6.08111 21.0164C6.18095 20.8757 6.98871 19.6489 7.05678 19.5415C7.12031 19.4417 7.18384 19.3873 7.28973 19.3721C7.30183 19.3721 12.6733 19.3721 12.6854 19.3721C12.7913 19.3873 12.8548 19.4417 12.9183 19.5415C12.9864 19.6489 13.7942 20.8757 13.894 21.0164H6.08111Z" fill="#2E3192"/>
<path d="M7.04091 8.4431C7.18915 8.4431 7.32832 8.38562 7.43269 8.27973C7.53707 8.17536 7.59455 8.03468 7.59455 7.88644C7.59455 7.7382 7.53707 7.59752 7.43118 7.49315C6.98797 7.04994 6.74443 6.46151 6.74443 5.83376C6.74443 5.20903 6.98646 4.6206 7.42664 4.17739C7.53102 4.07302 7.5885 3.93386 7.5885 3.78561C7.5885 3.63586 7.53102 3.4967 7.42513 3.39232C7.32076 3.28795 7.1831 3.23047 7.03486 3.23047C6.88662 3.23047 6.74746 3.28795 6.64308 3.39232C5.99415 4.04579 5.63716 4.91255 5.63868 5.83376C5.63868 6.75799 5.99869 7.62777 6.65216 8.27973C6.75653 8.3841 6.89418 8.44159 7.04243 8.44159L7.04091 8.4431Z" fill="#14C0F3"/>
<path d="M2.75456 11.7715C2.9028 11.7715 3.04196 11.714 3.14633 11.6097C3.25071 11.5053 3.30819 11.3646 3.30819 11.2164C3.30819 11.0681 3.25071 10.9275 3.14633 10.8231C1.83032 9.50405 1.10424 7.75087 1.10424 5.88425C1.10424 4.02065 1.82578 2.26748 3.13877 0.948438C3.24314 0.844065 3.30063 0.7049 3.30063 0.555147C3.30063 0.406906 3.24314 0.266228 3.13877 0.161855C3.0344 0.0574811 2.89523 0 2.7485 0C2.60178 0 2.4611 0.0574811 2.35824 0.161855C0.836501 1.69115 0 3.72266 0 5.88425C0 8.04736 0.841039 10.0819 2.36731 11.6097C2.47169 11.714 2.60934 11.7715 2.75758 11.7715H2.75456Z" fill="#14C0F3"/>
<path d="M4.58707 9.94776C4.69144 10.0521 4.83061 10.1096 4.97733 10.1096C5.12557 10.1096 5.26323 10.0521 5.3676 9.94625C5.47197 9.84187 5.52946 9.70119 5.52946 9.55295C5.52946 9.40471 5.47197 9.26404 5.36609 9.15966C4.49782 8.28988 4.01831 7.1327 4.01831 5.90139C4.01831 4.67311 4.4948 3.51744 5.35853 2.64766C5.4629 2.54177 5.52038 2.40261 5.52038 2.25436C5.52038 2.10612 5.4629 1.96545 5.35853 1.86107C5.25415 1.7567 5.11499 1.69922 4.96826 1.69922C4.82002 1.69922 4.68085 1.7567 4.57799 1.86259C3.504 2.94263 2.91255 4.37663 2.91407 5.9029C2.91407 7.43069 3.50854 8.86772 4.58707 9.94776Z" fill="#14C0F3"/>
<path d="M12.3828 7.88883C12.3828 8.03707 12.4403 8.17624 12.5447 8.28212C12.649 8.3865 12.7882 8.44549 12.9364 8.44549C13.0832 8.44549 13.2223 8.38801 13.3267 8.28364C13.9802 7.63017 14.3387 6.7619 14.3402 5.83766C14.3402 4.91645 13.9832 4.0497 13.3358 3.39623C13.2314 3.29186 13.0923 3.23438 12.944 3.23438C12.7958 3.23438 12.6581 3.29186 12.5537 3.39623C12.4479 3.5006 12.3904 3.64128 12.3904 3.78952C12.3904 3.93776 12.4479 4.07693 12.5522 4.1813C12.9924 4.62451 13.2344 5.21294 13.2344 5.83766C13.2344 6.46542 12.9909 7.05384 12.5477 7.49705C12.4433 7.60143 12.3843 7.7421 12.3843 7.89034L12.3828 7.88883Z" fill="#14C0F3"/>
<path d="M18.8719 5.88425C18.8719 7.75087 18.1458 9.50556 16.8298 10.8231C16.7254 10.9275 16.668 11.0681 16.668 11.2164C16.668 11.3646 16.7254 11.5038 16.8298 11.6097C16.9342 11.714 17.0734 11.7715 17.2216 11.7715C17.3698 11.7715 17.5075 11.714 17.6119 11.6097C19.1381 10.0819 19.9777 8.04736 19.9792 5.88425C19.9792 3.72417 19.1427 1.69115 17.6209 0.161855C17.5166 0.0574811 17.3774 0 17.2307 0C17.084 0 16.9448 0.0574811 16.8404 0.161855C16.736 0.266228 16.6786 0.406906 16.6786 0.555147C16.6786 0.703387 16.736 0.844065 16.8404 0.948438C18.1534 2.26748 18.8749 4.02065 18.8749 5.88425H18.8719Z" fill="#14C0F3"/>
<path d="M14.4453 9.55295C14.4453 9.70119 14.5028 9.84036 14.6072 9.94625C14.7115 10.0506 14.8507 10.1096 14.9974 10.1096C15.1442 10.1096 15.2833 10.0521 15.3877 9.94776C16.4662 8.86772 17.0592 7.4322 17.0607 5.9029C17.0607 4.37814 16.4708 2.94263 15.3968 1.86259C15.2924 1.75821 15.1532 1.69922 15.0065 1.69922C14.8583 1.69922 14.7206 1.7567 14.6162 1.86107C14.5119 1.96545 14.4544 2.10612 14.4544 2.25437C14.4544 2.40261 14.5119 2.54177 14.6162 2.64766C15.4815 3.51744 15.958 4.67311 15.9565 5.90139C15.9565 7.1327 15.4769 8.28988 14.6087 9.15966C14.5043 9.26404 14.4453 9.40471 14.4453 9.55295Z" fill="#14C0F3"/>
</svg>
