<svg width="33" height="22" viewBox="0 0 33 22" fill="none" xmlns="http://www.w3.org/2000/svg">
<g filter="url(#filter0_d_567_1793)">
<path d="M26.2688 12.4982H6.09375V1.07411C6.09375 0.537072 6.52926 0.101562 7.0663 0.101562H25.2963C25.8333 0.101562 26.2688 0.537072 26.2688 1.07411V12.4982Z" fill="#2E3192"/>
<path d="M26.1692 1.07271C26.1692 0.591034 25.7786 0.200405 25.2969 0.200388H7.06686C6.58517 0.200405 6.19454 0.591034 6.19453 1.07271V12.3967H26.1692V1.07271ZM26.3696 12.4969C26.3696 12.5522 26.3247 12.597 26.2694 12.597H6.09433C6.039 12.597 5.99414 12.5522 5.99414 12.4969V1.07271C5.99416 0.480363 6.4745 1.65296e-05 7.06686 0H25.2969C25.8892 1.65305e-05 26.3696 0.480363 26.3696 1.07271V12.4969Z" fill="#2E3192"/>
<path d="M25.238 1.40234H7.12695V11.196H25.238V1.40234Z" fill="#14C0F3"/>
<path d="M27.7971 13.0894C27.4584 13.4114 27.0062 13.5917 26.5393 13.5917H5.93876C5.46918 13.5917 5.01297 13.4221 4.65761 13.1155L4.14863 12.676C4.05378 12.5938 4.11189 12.4375 4.23747 12.4375H28.119C28.2506 12.4375 28.3147 12.5978 28.2192 12.6887L27.7971 13.0901V13.0894Z" fill="#2E3192"/>
<path d="M28.1178 12.3359C28.34 12.3359 28.4481 12.6067 28.2871 12.7599L27.8649 13.1614C27.8624 13.1638 27.8596 13.166 27.8568 13.1681C27.5004 13.5031 27.027 13.6906 26.5381 13.6906H5.93758C5.44398 13.6906 4.96451 13.5123 4.59096 13.19L4.5909 13.1899L4.08197 12.7504L4.08184 12.7503C3.91704 12.6076 4.01771 12.336 4.23624 12.3359H28.1178ZM4.23624 12.5363C4.20371 12.5363 4.18819 12.5772 4.21289 12.5988L4.72188 13.0383L4.75378 13.0651C5.08612 13.3391 5.50597 13.4902 5.93758 13.4902H26.5381C26.9794 13.4902 27.4068 13.3197 27.7268 13.0154C27.7291 13.0133 27.7314 13.0113 27.7338 13.0094L28.149 12.6147C28.179 12.5861 28.1589 12.5363 28.1178 12.5363H4.23624Z" fill="#2E3192"/>
<path d="M12.5859 12.3164L13.0589 12.6991C13.3027 12.8962 13.6086 13.0051 13.9232 13.0051H18.4807C18.7946 13.0051 19.1006 12.8969 19.3444 12.6991L19.8173 12.3164H12.5859Z" fill="#2E3192"/>
<path d="M13.0703 3.19785C13.0703 3.14251 13.1152 3.09766 13.1705 3.09766C13.2258 3.09766 13.2707 3.14251 13.2707 3.19785V9.4967H19.2436C19.2989 9.4967 19.3438 9.54156 19.3438 9.59689C19.3438 9.65223 19.2989 9.69709 19.2436 9.69709H13.1705C13.1152 9.69709 13.0703 9.65223 13.0703 9.59689V3.19785Z" fill="#F9F9F9"/>
<path d="M14.7472 6.95703H13.8047V8.93019H14.7472V6.95703Z" fill="#F9F9F9"/>
<path d="M14.7458 6.85938C14.8012 6.85939 14.846 6.90424 14.846 6.95957V8.93273C14.846 8.98805 14.8012 9.03291 14.7458 9.03292H13.8033C13.748 9.03292 13.7031 8.98806 13.7031 8.93273V6.95957C13.7031 6.90423 13.748 6.85938 13.8033 6.85938H14.7458ZM13.9035 8.83253H14.6456V7.05976H13.9035V8.83253Z" fill="#F9F9F9"/>
<path d="M16.2146 7.48438H15.2715V8.93118H16.2146V7.48438Z" fill="#F9F9F9"/>
<path d="M16.2133 7.38281C16.2686 7.38282 16.3135 7.42767 16.3135 7.48301V8.92982C16.3135 8.98515 16.2686 9.03001 16.2133 9.03001H15.2701C15.2148 9.03001 15.1699 8.98515 15.1699 8.92982V7.48301C15.1699 7.42767 15.2148 7.38281 15.2701 7.38281H16.2133ZM15.3703 8.82962H16.1131V7.5832H15.3703V8.82962Z" fill="#F9F9F9"/>
<path d="M17.6827 6.69531H16.7402V8.93164H17.6827V6.69531Z" fill="#F9F9F9"/>
<path d="M17.6814 6.59375C17.7367 6.59376 17.7816 6.63862 17.7816 6.69394V8.93031C17.7816 8.98562 17.7367 9.03049 17.6814 9.0305H16.7389C16.6835 9.0305 16.6387 8.98563 16.6387 8.93031V6.69394C16.6387 6.63861 16.6835 6.59375 16.7389 6.59375H17.6814ZM16.8391 8.83011H17.5812V6.79414H16.8391V8.83011Z" fill="#F9F9F9"/>
<path d="M19.1463 5.90625H18.2031V8.93144H19.1463V5.90625Z" fill="#F9F9F9"/>
<path d="M19.1469 5.80469C19.2022 5.80469 19.2471 5.84955 19.2471 5.90488V8.93007C19.2471 8.98541 19.2022 9.03026 19.1469 9.03027H18.2037C18.1484 9.03027 18.1035 8.98541 18.1035 8.93007V5.90488C18.1035 5.84955 18.1484 5.80469 18.2037 5.80469H19.1469ZM18.3039 8.82988H19.0467V6.00508H18.3039V8.82988Z" fill="#F9F9F9"/>
<path d="M18.44 3.31621C18.4775 3.30072 18.5205 3.30929 18.5492 3.33793C18.5778 3.36658 18.5864 3.40963 18.5709 3.44706L17.8809 5.11429C17.8681 5.14521 17.8407 5.16769 17.8079 5.17423C17.7751 5.18077 17.7412 5.17055 17.7175 5.1469C16.9501 4.38021 17.5088 4.93813 16.7403 4.16962C16.7166 4.14595 16.7063 4.11204 16.7129 4.07921C16.7194 4.04639 16.7419 4.01902 16.7728 4.00622L18.44 3.31621ZM16.9879 4.13394C17.566 4.71203 17.1767 4.32309 17.7531 4.89903L18.2933 3.5937L16.9879 4.13394Z" fill="#F9F9F9"/>
<path d="M17.1708 4.54106C17.2099 4.50194 17.2734 4.50194 17.3125 4.54106C17.3517 4.58019 17.3517 4.64362 17.3125 4.68275L15.9599 6.03536C15.9411 6.05416 15.9156 6.06472 15.889 6.06472C15.8624 6.06471 15.837 6.05416 15.8182 6.03536L14.9232 5.13968L13.757 6.30588C13.7178 6.345 13.6544 6.345 13.6153 6.30588C13.5762 6.26675 13.5762 6.20332 13.6153 6.16419L14.8523 4.92716L14.8597 4.92051C14.8775 4.90589 14.9 4.89781 14.9232 4.89781C14.9498 4.89782 14.9753 4.90837 14.9941 4.92716L15.889 5.82278L17.1708 4.54106Z" fill="#F9F9F9"/>
</g>
<defs>
<filter id="filter0_d_567_1793" x="0" y="0" width="32.3633" height="21.6914" filterUnits="userSpaceOnUse" color-interpolation-filters="sRGB">
<feFlood flood-opacity="0" result="BackgroundImageFix"/>
<feColorMatrix in="SourceAlpha" type="matrix" values="0 0 0 0 0 0 0 0 0 0 0 0 0 0 0 0 0 0 127 0" result="hardAlpha"/>
<feOffset dy="4"/>
<feGaussianBlur stdDeviation="2"/>
<feComposite in2="hardAlpha" operator="out"/>
<feColorMatrix type="matrix" values="0 0 0 0 0 0 0 0 0 0 0 0 0 0 0 0 0 0 0.25 0"/>
<feBlend mode="normal" in2="BackgroundImageFix" result="effect1_dropShadow_567_1793"/>
<feBlend mode="normal" in="SourceGraphic" in2="effect1_dropShadow_567_1793" result="shape"/>
</filter>
</defs>
</svg>
