<svg width="23" height="18" viewBox="0 0 23 18" fill="none" xmlns="http://www.w3.org/2000/svg">
<path d="M19.4059 0H3.59414C1.60954 0 0 1.25912 0 2.81382V15.1875C0 16.7422 1.60954 18 3.59414 18H19.4059C21.3905 18 23 16.7422 23 15.1875V2.81382C23 1.25912 21.3905 0 19.4059 0ZM19.5373 13.0429C19.5373 14.0589 18.4122 14.8791 17.0268 14.8791H5.97454C4.58643 14.8791 3.46404 14.0576 3.46404 13.0429V8.97505H6.63054L8.34388 6.91619V13.2937L10.716 8.28535L11.3415 11.0365L14.2908 6.06782V13.5585L16.1079 8.24696H19.5387V13.0416L19.5373 13.0429ZM19.5373 7.93474H15.8574L14.6284 11.5291V4.84709L11.4827 10.1446L10.8281 7.26296L8.68157 11.7978V5.99744L6.46309 8.66283H3.46267V4.95969C3.46267 3.94498 4.58643 3.1222 5.97316 3.1222H17.0255C18.4108 3.1222 19.5359 3.94498 19.5359 4.95969V7.93474H19.5373Z" fill="#2E3192"/>
<path d="M19.5373 13.0418C19.5373 14.0578 18.4122 14.878 17.0268 14.878H5.97454C4.58643 14.878 3.46404 14.0565 3.46404 13.0418V8.97394H6.63054L8.34388 6.91508V13.2926L10.716 8.28424L11.3415 11.0354L14.2908 6.06671V13.5574L16.1079 8.24585H19.5387V13.0405L19.5373 13.0418ZM19.5373 7.93363H15.8574L14.6284 11.528V4.84598L11.4827 10.1435L10.8281 7.26185L8.68157 11.7967V5.99633L6.46309 8.66172H3.46267V4.95859C3.46267 3.94387 4.58643 3.12109 5.97316 3.12109H17.0255C18.4108 3.12109 19.5359 3.94387 19.5359 4.95859V7.93363H19.5373Z" fill="#14C0F3"/>
</svg>
