<svg width="21" height="21" viewBox="0 0 21 21" fill="none" xmlns="http://www.w3.org/2000/svg">
<path d="M3.46067 10.5386V18.2324C3.46067 18.2324 3.21056 20.4046 5.59002 20.4046H10.225C10.225 20.4046 12.0625 20.1128 12.0625 18.4836V10.5397C12.0625 10.5397 11.8541 8.04309 9.47353 8.04309H6.04856C6.04856 8.04309 3.45955 7.98226 3.45955 10.5397L3.46067 10.5386Z" fill="url(#paint0_linear_567_1839)"/>
<path d="M8.90738 8.10156C8.90738 8.10156 10.612 9.26763 10.612 10.8573V16.513L9.05384 18.4937C9.05384 18.4937 9.13383 19.7408 11.7476 19.5076C11.7476 19.5076 12.169 18.2503 12.169 15.7278V10.8573C12.169 10.8573 12.8765 8.10156 8.90625 8.10156H8.90738Z" fill="#D1D3D4"/>
<path d="M10.2261 20.814H5.59108C4.73146 20.814 4.06899 20.5594 3.62172 20.0569C2.98742 19.346 3.03474 18.3906 3.05051 18.2115V10.5368C3.05051 9.6738 3.31527 8.97754 3.83578 8.4683C4.71681 7.60755 6.00681 7.62895 6.06089 7.62895H9.47572C11.658 7.62895 12.3915 9.50818 12.4748 10.5019C12.4748 10.5131 12.476 10.5244 12.476 10.5357V18.4796C12.476 20.0456 11.0474 20.6867 10.2914 20.8072C10.27 20.8106 10.2486 20.8129 10.2272 20.8129L10.2261 20.814ZM6.04399 8.45253C5.95611 8.45253 5.01086 8.46717 4.40586 9.06204C4.05209 9.41017 3.87183 9.90701 3.87183 10.5379V18.2317C3.87183 18.2475 3.87183 18.2633 3.86958 18.2791C3.86958 18.2847 3.79635 19.0238 4.23911 19.515C4.52415 19.8316 4.97932 19.9927 5.59108 19.9927H10.19C10.3996 19.951 11.6535 19.6547 11.6535 18.483V10.5582C11.6321 10.3577 11.3775 8.45365 9.47572 8.45365H6.05075C6.05075 8.45365 6.04737 8.45365 6.04399 8.45365V8.45253Z" fill="#2E3192"/>
<g filter="url(#filter0_d_567_1839)">
<path d="M5.33957 8.10296H4V6.70593C4 6.70593 4.00338 5.87109 4.67035 5.87109H10.6404C10.6404 5.87109 11.5169 6.07952 11.5169 6.70593V8.10296H5.33957Z" fill="#2E3192"/>
</g>
<path d="M9.09553 3.87682V1.77677C9.09553 1.0253 8.48038 0.410156 7.72892 0.410156C6.97745 0.410156 6.36231 1.0253 6.36231 1.77677V3.87682C5.81363 3.87682 5.36523 4.32522 5.36523 4.87389C5.36523 5.42256 5.81363 5.87096 6.36231 5.87096H9.0944C9.64307 5.87096 10.0915 5.42256 10.0915 4.87389C10.0915 4.32522 9.64307 3.87682 9.0944 3.87682H9.09553Z" fill="#2E3192" fill-opacity="0.23"/>
<path d="M11.518 8.51247H4.00107C3.77348 8.51247 3.58984 8.32883 3.58984 8.10125V6.70422C3.5921 6.20174 3.88164 5.45703 4.67141 5.45703H10.6415C10.673 5.45703 10.7057 5.46041 10.7372 5.4683C11.18 5.5742 11.9303 5.95275 11.9303 6.70422V8.10125C11.9303 8.32883 11.7467 8.51247 11.5191 8.51247H11.518ZM4.41229 7.6889H11.1068V6.70309C11.1068 6.47889 10.7384 6.32567 10.5863 6.27948H4.67141C4.42806 6.27948 4.41341 6.66366 4.41341 6.7076V7.68777L4.41229 7.6889Z" fill="#2E3192"/>
<g filter="url(#filter1_d_567_1839)">
<path d="M9.09464 6.28213H6.36142C5.58517 6.28213 4.95312 5.65008 4.95312 4.87383C4.95312 4.24066 5.37336 3.70325 5.9502 3.5275V1.77783C5.9502 0.797659 6.74786 0 7.72803 0C8.70821 0 9.50586 0.797659 9.50586 1.77783V3.5275C10.0827 3.70438 10.5029 4.24066 10.5029 4.87383C10.5029 5.65008 9.8709 6.28213 9.09464 6.28213ZM7.72803 0.822445C7.20189 0.822445 6.77264 1.25057 6.77264 1.77783V3.87788C6.77264 4.10546 6.589 4.28911 6.36142 4.28911C6.0392 4.28911 5.7767 4.55161 5.7767 4.87383C5.7767 5.19605 6.0392 5.45855 6.36142 5.45855H9.09464C9.41686 5.45855 9.67937 5.19605 9.67937 4.87383C9.67937 4.55161 9.41686 4.28911 9.09464 4.28911C8.86706 4.28911 8.68342 4.10434 8.68342 3.87788V1.77783C8.68342 1.25169 8.2553 0.822445 7.72803 0.822445Z" fill="#2E3192"/>
</g>
<path d="M18.3693 15.0685C18.26 12.0739 17.0241 10.8594 17.0241 10.8594H9.60741C9.01818 10.8594 8.53711 11.3416 8.53711 11.9297C8.53711 12.5178 9.01931 13 9.60741 13H12.1683V16.5128H9.60741C9.01818 16.5128 8.53711 16.995 8.53711 17.5831C8.53711 18.1724 9.01931 18.6534 9.60741 18.6534H11.3909C11.499 18.6534 11.6038 18.6365 11.7018 18.6061H11.846C15.6394 18.6061 18.4774 18.062 18.3693 15.0685Z" fill="#F9F9F9"/>
<path d="M12.1699 12.9975C12.1699 12.9975 13.567 12.8814 13.567 14.7686C13.567 16.6557 12.1699 16.5103 12.1699 16.5103V12.9975Z" fill="#E1E3EE"/>
<path d="M8.8164 16.8672C8.8164 16.8672 8.75106 17.8721 10.2675 17.9262C11.784 17.9803 14.5927 18.1448 16.8628 17.8181C16.8628 17.8181 12.8791 19.0799 9.78644 18.6529C9.78644 18.6529 7.91847 18.2034 8.8164 16.8672Z" fill="#F9F9F9"/>
<path d="M8.67889 11.4035C8.67889 11.4035 9.00674 12.3735 10.0692 12.3735C11.1316 12.3735 10.8792 13.1081 10.8792 13.1081C10.8792 13.1081 8.48736 13.5632 8.67889 11.4023V11.4035Z" fill="#F9F9F9"/>
<path d="M18.3698 15.0685C18.2605 12.0739 17.0246 10.8594 17.0246 10.8594H12.1699C12.1699 10.8594 13.4881 12.7825 16.5278 12.3465C16.5278 12.3465 17.6735 14.9186 16.8624 17.8186C17.8527 17.2925 18.4205 16.4362 18.3698 15.0685Z" fill="#F9F9F9"/>
<path d="M11.3919 19.0646H9.60848C8.79167 19.0646 8.12695 18.3999 8.12695 17.5831C8.12695 16.7663 8.79167 16.1016 9.60848 16.1016H11.7581V13.4123H9.60848C8.79167 13.4123 8.12695 12.7476 8.12695 11.9307C8.12695 11.1139 8.79167 10.4492 9.60848 10.4492H17.0251C17.1333 10.4492 17.2369 10.492 17.3135 10.5675C17.3688 10.6216 18.6678 11.933 18.7816 15.0549C18.8187 16.079 18.5348 16.9127 17.9377 17.5324C16.6759 18.8415 14.1511 19.0184 11.8482 19.0184H11.7615C11.6409 19.05 11.5181 19.0657 11.3931 19.0657L11.3919 19.0646ZM9.60848 16.924C9.2457 16.924 8.9494 17.2192 8.9494 17.5831C8.9494 17.947 9.24458 18.2422 9.60848 18.2422H11.3919C11.4562 18.2422 11.5204 18.232 11.5823 18.214C11.6218 18.2016 11.6623 18.196 11.7029 18.196H11.8471C13.9776 18.196 16.2962 18.0484 17.344 16.9612C17.7867 16.5015 17.9873 15.8886 17.958 15.0842C17.8746 12.7915 17.1153 11.6243 16.837 11.2717H9.60848C9.2457 11.2717 8.9494 11.5668 8.9494 11.9307C8.9494 12.2947 9.24458 12.5898 9.60848 12.5898H12.1693C12.3969 12.5898 12.5805 12.7746 12.5805 13.0011V16.5139C12.5805 16.7415 12.3969 16.9251 12.1693 16.9251H9.60848V16.924Z" fill="#2E3192"/>
<path d="M17.8238 6.23357C19.049 6.23357 20.0422 5.24038 20.0422 4.01522C20.0422 2.79006 19.049 1.79688 17.8238 1.79688C16.5987 1.79688 15.6055 2.79006 15.6055 4.01522C15.6055 5.24038 16.5987 6.23357 17.8238 6.23357Z" fill="#F9F9F9"/>
<path d="M17.6378 1.79688C17.5488 1.79688 17.4598 1.80251 17.373 1.81265C18.4738 1.94334 19.3266 2.87957 19.3266 4.01522C19.3266 5.15087 18.4726 6.08598 17.373 6.2178C17.4598 6.22794 17.5477 6.23357 17.6378 6.23357C18.8625 6.23357 19.8562 5.23988 19.8562 4.01522C19.8562 2.79057 18.8625 1.79688 17.6378 1.79688Z" fill="#959DB7"/>
<path d="M17.8257 5.03816C18.3907 5.03816 18.8487 4.58015 18.8487 4.01517C18.8487 3.45019 18.3907 2.99219 17.8257 2.99219C17.2607 2.99219 16.8027 3.45019 16.8027 4.01517C16.8027 4.58015 17.2607 5.03816 17.8257 5.03816Z" fill="#E3E4E8"/>
<path d="M17.8249 6.64586C16.3749 6.64586 15.1953 5.46627 15.1953 4.01629C15.1953 2.56631 16.3749 1.38672 17.8249 1.38672C19.2749 1.38672 20.4545 2.56631 20.4545 4.01629C20.4545 5.46627 19.2749 6.64586 17.8249 6.64586ZM17.8249 2.20916C16.8289 2.20916 16.0178 3.01921 16.0178 4.01629C16.0178 5.01336 16.8278 5.82341 17.8249 5.82341C18.822 5.82341 19.632 5.01336 19.632 4.01629C19.632 3.01921 18.822 2.20916 17.8249 2.20916Z" fill="#2E3192"/>
<path d="M12.1695 6.23357C13.3947 6.23357 14.3879 5.24038 14.3879 4.01522C14.3879 2.79006 13.3947 1.79688 12.1695 1.79688C10.9444 1.79688 9.95117 2.79006 9.95117 4.01522C9.95117 5.24038 10.9444 6.23357 12.1695 6.23357Z" fill="#F9F9F9"/>
<path d="M12.484 6.23357C12.573 6.23357 12.662 6.22794 12.7487 6.2178C11.648 6.08711 10.7951 5.15087 10.7951 4.01522C10.7951 2.87957 11.6491 1.94446 12.7487 1.81265C12.662 1.80251 12.5741 1.79688 12.484 1.79688C11.2593 1.79688 10.2656 2.79057 10.2656 4.01522C10.2656 5.23988 11.2593 6.23357 12.484 6.23357Z" fill="#E1E3EE"/>
<path d="M12.1695 5.03816C12.7345 5.03816 13.1925 4.58015 13.1925 4.01517C13.1925 3.45019 12.7345 2.99219 12.1695 2.99219C11.6045 2.99219 11.1465 3.45019 11.1465 4.01517C11.1465 4.58015 11.6045 5.03816 12.1695 5.03816Z" fill="#E3E4E8"/>
<path d="M12.1686 6.64586C10.7187 6.64586 9.53906 5.46627 9.53906 4.01629C9.53906 2.56631 10.7187 1.38672 12.1686 1.38672C13.6186 1.38672 14.7982 2.56631 14.7982 4.01629C14.7982 5.46627 13.6186 6.64586 12.1686 6.64586ZM12.1686 2.20916C11.1727 2.20916 10.3615 3.01921 10.3615 4.01629C10.3615 5.01336 11.1716 5.82341 12.1686 5.82341C13.1657 5.82341 13.9758 5.01336 13.9758 4.01629C13.9758 3.01921 13.1657 2.20916 12.1686 2.20916Z" fill="#2E3192"/>
<path d="M17.6518 10.3488C19.2014 8.79917 19.2014 6.28676 17.6518 4.73716C16.1022 3.18755 13.5898 3.18755 12.0402 4.73716C10.4906 6.28676 10.4906 8.79917 12.0402 10.3488C13.5898 11.8984 16.1022 11.8984 17.6518 10.3488Z" fill="#F9F9F9"/>
<path d="M11.6476 7.54223C11.6476 5.4557 13.2587 3.74659 15.3035 3.58774C15.201 3.57985 15.0974 3.57422 14.9915 3.57422C12.8001 3.57422 11.0234 5.35092 11.0234 7.54223C11.0234 9.73354 12.8001 11.5102 14.9915 11.5102C15.0962 11.5102 15.1999 11.5046 15.3035 11.4967C13.2576 11.3379 11.6476 9.62876 11.6476 7.54223Z" fill="#E1E3EE"/>
<path d="M18.0427 7.54223C18.0427 9.62876 16.4316 11.3379 14.3867 11.4967C14.4892 11.5046 14.5929 11.5102 14.6988 11.5102C16.8901 11.5102 18.6668 9.73354 18.6668 7.54223C18.6668 5.35092 16.8901 3.57422 14.6988 3.57422C14.594 3.57422 14.4904 3.57985 14.3867 3.58774C16.4327 3.74659 18.0427 5.4557 18.0427 7.54223Z" fill="#F9F9F9"/>
<path d="M14.846 11.9225C12.4317 11.9225 10.4668 9.95768 10.4668 7.5433C10.4668 5.12892 12.4317 3.16406 14.846 3.16406C17.2604 3.16406 19.2253 5.12892 19.2253 7.5433C19.2253 9.95768 17.2604 11.9225 14.846 11.9225ZM14.846 3.98651C12.8846 3.98651 11.2892 5.58183 11.2892 7.5433C11.2892 9.50477 12.8846 11.1001 14.846 11.1001C16.8075 11.1001 18.4028 9.50477 18.4028 7.5433C18.4028 5.58183 16.8075 3.98651 14.846 3.98651Z" fill="#2E3192"/>
<path d="M16.1261 8.49669C16.1261 9.35406 15.5527 10.0481 14.8463 10.0481C14.1399 10.0481 13.5664 9.35293 13.5664 8.49669C13.5664 7.64045 14.515 6.94531 14.8463 6.94531C15.0806 6.94531 16.1261 7.64045 16.1261 8.49669Z" fill="#2E3192"/>
<path d="M14.655 6.99219C14.2461 7.16231 13.5645 7.77069 13.5645 8.49737C13.5645 9.28377 14.0467 9.93158 14.6719 10.033C13.071 8.59652 14.1762 7.39665 14.6539 6.99219H14.655Z" fill="#77849D"/>
<path d="M17.2304 7.46742C17.0794 7.46742 16.9566 7.34462 16.9566 7.19365C16.9566 6.83764 16.8011 6.66977 16.7628 6.66977C16.7245 6.66977 16.569 6.83876 16.569 7.19365C16.569 7.34462 16.4462 7.46742 16.2953 7.46742C16.1443 7.46742 16.0215 7.34462 16.0215 7.19365C16.0215 6.58189 16.3403 6.12109 16.7639 6.12109C17.1876 6.12109 17.5064 6.58189 17.5064 7.19365C17.5064 7.34462 17.3836 7.46742 17.2326 7.46742H17.2304Z" fill="#2E3192"/>
<path d="M13.3983 7.46742C13.2474 7.46742 13.1246 7.34462 13.1246 7.19365C13.1246 6.83764 12.9691 6.66977 12.9308 6.66977C12.8925 6.66977 12.737 6.83876 12.737 7.19365C12.737 7.34462 12.6142 7.46742 12.4632 7.46742C12.3123 7.46742 12.1895 7.34462 12.1895 7.19365C12.1895 6.58189 12.5083 6.12109 12.9319 6.12109C13.3555 6.12109 13.6744 6.58189 13.6744 7.19365C13.6744 7.34462 13.5516 7.46742 13.4006 7.46742H13.3983Z" fill="#2E3192"/>
<path d="M19.0517 17.1821C18.8219 17.8096 18.2495 18.1769 17.773 18.0023C17.2964 17.8276 17.0959 17.1776 17.3257 16.5512C17.5555 15.9236 18.1279 15.5563 18.6044 15.731C19.081 15.9056 19.2815 16.5557 19.0517 17.1821Z" fill="#F9F9F9"/>
<path d="M18.0178 18.4566C17.886 18.4566 17.7553 18.434 17.6314 18.389C16.9419 18.1366 16.6321 17.2488 16.9385 16.4095C17.2461 15.5701 18.055 15.0924 18.7445 15.3448C19.434 15.5972 19.7439 16.485 19.4374 17.3243C19.2954 17.7119 19.0431 18.0363 18.7265 18.2403C18.5023 18.3834 18.2567 18.4577 18.0178 18.4577V18.4566ZM18.3592 16.0997C18.1373 16.0997 17.85 16.3126 17.7103 16.6923C17.5492 17.1339 17.6877 17.5339 17.9131 17.6161C18.0573 17.6691 18.206 17.5958 18.2815 17.5463C18.4448 17.4415 18.5845 17.2567 18.6634 17.0404C18.8245 16.5988 18.6859 16.1988 18.4606 16.1166C18.4291 16.1053 18.3941 16.0997 18.3581 16.0997H18.3592Z" fill="#2E3192"/>
<defs>
<filter id="filter0_d_567_1839" x="0" y="5.87109" width="15.5176" height="10.2305" filterUnits="userSpaceOnUse" color-interpolation-filters="sRGB">
<feFlood flood-opacity="0" result="BackgroundImageFix"/>
<feColorMatrix in="SourceAlpha" type="matrix" values="0 0 0 0 0 0 0 0 0 0 0 0 0 0 0 0 0 0 127 0" result="hardAlpha"/>
<feOffset dy="4"/>
<feGaussianBlur stdDeviation="2"/>
<feComposite in2="hardAlpha" operator="out"/>
<feColorMatrix type="matrix" values="0 0 0 0 0 0 0 0 0 0 0 0 0 0 0 0 0 0 0.25 0"/>
<feBlend mode="normal" in2="BackgroundImageFix" result="effect1_dropShadow_567_1839"/>
<feBlend mode="normal" in="SourceGraphic" in2="effect1_dropShadow_567_1839" result="shape"/>
</filter>
<filter id="filter1_d_567_1839" x="0.953125" y="0" width="13.5508" height="14.2812" filterUnits="userSpaceOnUse" color-interpolation-filters="sRGB">
<feFlood flood-opacity="0" result="BackgroundImageFix"/>
<feColorMatrix in="SourceAlpha" type="matrix" values="0 0 0 0 0 0 0 0 0 0 0 0 0 0 0 0 0 0 127 0" result="hardAlpha"/>
<feOffset dy="4"/>
<feGaussianBlur stdDeviation="2"/>
<feComposite in2="hardAlpha" operator="out"/>
<feColorMatrix type="matrix" values="0 0 0 0 0 0 0 0 0 0 0 0 0 0 0 0 0 0 0.25 0"/>
<feBlend mode="normal" in2="BackgroundImageFix" result="effect1_dropShadow_567_1839"/>
<feBlend mode="normal" in="SourceGraphic" in2="effect1_dropShadow_567_1839" result="shape"/>
</filter>
<linearGradient id="paint0_linear_567_1839" x1="7.75879" y1="21.0456" x2="7.75879" y2="8.07802" gradientUnits="userSpaceOnUse">
<stop stop-color="#B6EEFF"/>
<stop offset="0.28" stop-color="#C6F1FF"/>
<stop offset="0.82" stop-color="#F0FBFF"/>
<stop offset="1" stop-color="white"/>
</linearGradient>
</defs>
</svg>
