<svg width="1241" height="1241" viewBox="0 0 1241 1241" fill="none" xmlns="http://www.w3.org/2000/svg">
<path d="M789.035 98.0753C589.395 29.4553 359.255 74.8053 199.935 234.125C-22.7855 456.845 -22.7855 817.945 199.935 1040.67C422.655 1263.39 783.754 1263.39 1006.47 1040.67C1165.79 881.345 1211.14 651.205 1142.52 451.565" stroke="#2E3191" stroke-width="65.79" stroke-linecap="round" stroke-linejoin="round"/>
<path d="M761.304 296.915C622.474 232.465 452.345 257.495 337.815 372.025C191.255 518.585 191.255 756.215 337.815 902.785C484.375 1049.34 722.004 1049.34 868.574 902.785C983.104 788.255 1008.13 618.135 943.684 479.295" stroke="#2E3191" stroke-width="65.79" stroke-linecap="round" stroke-linejoin="round"/>
<path d="M601.105 457.115C555.665 457.635 510.385 475.235 475.715 509.905C405.305 580.315 405.305 694.475 475.715 764.875C546.125 835.285 660.285 835.285 730.685 764.875C765.355 730.205 782.955 684.925 783.475 639.485" stroke="#2E3191" stroke-width="65.79" stroke-linecap="round" stroke-linejoin="round"/>
<path d="M603.194 637.395L903.024 337.575" stroke="#14BFF3" stroke-width="65.79" stroke-linecap="round" stroke-linejoin="round"/>
<path d="M1207.7 185.806L1036.19 357.306L903.024 337.576L883.284 204.396L1054.79 32.8955L1074.52 166.076L1207.7 185.806Z" stroke="#14BFF3" stroke-width="65.79" stroke-linecap="round" stroke-linejoin="round"/>
</svg>
