<svg width="1312" height="1255" viewBox="0 0 1312 1255" fill="none" xmlns="http://www.w3.org/2000/svg">
<path d="M655.624 910.494C811.993 910.494 938.754 783.733 938.754 627.364C938.754 470.996 811.993 344.234 655.624 344.234C499.256 344.234 372.494 470.996 372.494 627.364C372.494 783.733 499.256 910.494 655.624 910.494Z" stroke="#2E3191" stroke-width="65.79" stroke-linecap="round" stroke-linejoin="round"/>
<path d="M655.625 768.055C733.326 768.055 796.315 705.066 796.315 627.365C796.315 549.664 733.326 486.675 655.625 486.675C577.924 486.675 514.935 549.664 514.935 627.365C514.935 705.066 577.924 768.055 655.625 768.055Z" stroke="#14BFF3" stroke-width="65.79" stroke-linecap="round" stroke-linejoin="round"/>
<path d="M1278.35 627.364C1126.86 800.874 904.045 910.494 655.625 910.494C407.205 910.494 184.375 800.874 32.8945 627.364C184.375 453.854 407.195 344.234 655.625 344.234C904.055 344.234 1126.86 453.854 1278.35 627.364Z" stroke="#2E3191" stroke-width="65.79" stroke-linecap="round" stroke-linejoin="round"/>
<path d="M655.625 200.395V32.8945" stroke="#14BFF3" stroke-width="65.79" stroke-linecap="round" stroke-linejoin="round"/>
<path d="M655.625 1221.92V1054.42" stroke="#14BFF3" stroke-width="65.79" stroke-linecap="round" stroke-linejoin="round"/>
<path d="M425.915 229.545L358.375 112.545" stroke="#14BFF3" stroke-width="65.79" stroke-linecap="round" stroke-linejoin="round"/>
<path d="M952.885 1142.27L887.785 1029.51" stroke="#14BFF3" stroke-width="65.79" stroke-linecap="round" stroke-linejoin="round"/>
<path d="M952.885 112.545L887.825 225.225" stroke="#14BFF3" stroke-width="65.79" stroke-linecap="round" stroke-linejoin="round"/>
<path d="M425.965 1025.21L358.375 1142.28" stroke="#14BFF3" stroke-width="65.79" stroke-linecap="round" stroke-linejoin="round"/>
</svg>
